<mxfile host="app.diagrams.net" modified="2023-09-12T19:59:24.157Z" agent="Mozilla/5.0 (Windows NT 10.0; Win64; x64) AppleWebKit/537.36 (KHTML, like Gecko) Chrome/116.0.0.0 Safari/537.36" etag="vCqXIZu0h9V5ZDg7SOMq" version="21.7.4" type="device">
  <diagram name="Página-1" id="3ZNqBfEPwck8cRuXNRjr">
    <mxGraphModel dx="880" dy="470" grid="1" gridSize="10" guides="1" tooltips="1" connect="1" arrows="1" fold="1" page="1" pageScale="1" pageWidth="827" pageHeight="1169" math="0" shadow="0">
      <root>
        <mxCell id="0" />
        <mxCell id="1" parent="0" />
        <mxCell id="wuLsv0dlwk853q3iNeAo-21" style="edgeStyle=orthogonalEdgeStyle;rounded=0;orthogonalLoop=1;jettySize=auto;html=1;entryX=0.367;entryY=0.025;entryDx=0;entryDy=0;entryPerimeter=0;" edge="1" parent="1" source="wuLsv0dlwk853q3iNeAo-1" target="wuLsv0dlwk853q3iNeAo-2">
          <mxGeometry relative="1" as="geometry" />
        </mxCell>
        <mxCell id="wuLsv0dlwk853q3iNeAo-1" value="" style="ellipse;html=1;shape=endState;fillColor=#000000;strokeColor=#ff0000;" vertex="1" parent="1">
          <mxGeometry x="240" y="470" width="30" height="30" as="geometry" />
        </mxCell>
        <mxCell id="wuLsv0dlwk853q3iNeAo-2" value="Selecionar Área de devolução" style="rounded=1;whiteSpace=wrap;html=1;arcSize=40;fillColor=#f8cecc;strokeColor=#b85450;" vertex="1" parent="1">
          <mxGeometry x="200" y="550" width="120" height="40" as="geometry" />
        </mxCell>
        <mxCell id="wuLsv0dlwk853q3iNeAo-3" value="" style="edgeStyle=orthogonalEdgeStyle;html=1;verticalAlign=bottom;endArrow=open;endSize=8;strokeColor=#ff0000;rounded=0;" edge="1" source="wuLsv0dlwk853q3iNeAo-2" parent="1">
          <mxGeometry relative="1" as="geometry">
            <mxPoint x="260" y="650" as="targetPoint" />
          </mxGeometry>
        </mxCell>
        <mxCell id="wuLsv0dlwk853q3iNeAo-4" value="Selcionar Livro&amp;nbsp;" style="rounded=1;whiteSpace=wrap;html=1;arcSize=40;fillColor=#f8cecc;strokeColor=#b85450;" vertex="1" parent="1">
          <mxGeometry x="200" y="650" width="120" height="40" as="geometry" />
        </mxCell>
        <mxCell id="wuLsv0dlwk853q3iNeAo-5" value="" style="edgeStyle=orthogonalEdgeStyle;html=1;verticalAlign=bottom;endArrow=open;endSize=8;strokeColor=#ff0000;rounded=0;" edge="1" source="wuLsv0dlwk853q3iNeAo-4" parent="1">
          <mxGeometry relative="1" as="geometry">
            <mxPoint x="260" y="750" as="targetPoint" />
          </mxGeometry>
        </mxCell>
        <mxCell id="wuLsv0dlwk853q3iNeAo-6" value="Mensagem de erro" style="rounded=1;whiteSpace=wrap;html=1;arcSize=40;fillColor=#f8cecc;strokeColor=#b85450;" vertex="1" parent="1">
          <mxGeometry x="20" y="760" width="120" height="40" as="geometry" />
        </mxCell>
        <mxCell id="wuLsv0dlwk853q3iNeAo-7" value="" style="edgeStyle=orthogonalEdgeStyle;html=1;verticalAlign=bottom;endArrow=open;endSize=8;strokeColor=#ff0000;rounded=0;entryX=0;entryY=1;entryDx=0;entryDy=0;" edge="1" source="wuLsv0dlwk853q3iNeAo-6" parent="1" target="wuLsv0dlwk853q3iNeAo-17">
          <mxGeometry relative="1" as="geometry">
            <mxPoint x="110" y="930" as="targetPoint" />
            <Array as="points">
              <mxPoint x="80" y="810" />
              <mxPoint x="101" y="810" />
              <mxPoint x="101" y="1030" />
              <mxPoint x="110" y="1030" />
              <mxPoint x="110" y="965" />
              <mxPoint x="294" y="965" />
            </Array>
          </mxGeometry>
        </mxCell>
        <mxCell id="wuLsv0dlwk853q3iNeAo-13" style="edgeStyle=orthogonalEdgeStyle;rounded=0;orthogonalLoop=1;jettySize=auto;html=1;entryX=1;entryY=0.5;entryDx=0;entryDy=0;" edge="1" parent="1" source="wuLsv0dlwk853q3iNeAo-8" target="wuLsv0dlwk853q3iNeAo-6">
          <mxGeometry relative="1" as="geometry" />
        </mxCell>
        <mxCell id="wuLsv0dlwk853q3iNeAo-8" value="livro existe?" style="rhombus;whiteSpace=wrap;html=1;fillColor=#b1ddf0;strokeColor=#10739e;" vertex="1" parent="1">
          <mxGeometry x="205" y="750" width="105" height="60" as="geometry" />
        </mxCell>
        <mxCell id="wuLsv0dlwk853q3iNeAo-9" value="yes" style="edgeStyle=orthogonalEdgeStyle;html=1;align=left;verticalAlign=bottom;endArrow=open;endSize=8;strokeColor=#ff0000;rounded=0;" edge="1" source="wuLsv0dlwk853q3iNeAo-8" parent="1">
          <mxGeometry x="-1" relative="1" as="geometry">
            <mxPoint x="410" y="780" as="targetPoint" />
            <Array as="points">
              <mxPoint x="360" y="780" />
              <mxPoint x="360" y="781" />
            </Array>
          </mxGeometry>
        </mxCell>
        <mxCell id="wuLsv0dlwk853q3iNeAo-11" value="no" style="text;html=1;align=center;verticalAlign=middle;resizable=0;points=[];autosize=1;strokeColor=none;fillColor=none;" vertex="1" parent="1">
          <mxGeometry x="210" y="738" width="40" height="30" as="geometry" />
        </mxCell>
        <mxCell id="wuLsv0dlwk853q3iNeAo-20" style="edgeStyle=orthogonalEdgeStyle;rounded=0;orthogonalLoop=1;jettySize=auto;html=1;entryX=0.308;entryY=0;entryDx=0;entryDy=0;entryPerimeter=0;fillColor=#e51400;strokeColor=#B20000;" edge="1" parent="1" source="wuLsv0dlwk853q3iNeAo-14" target="wuLsv0dlwk853q3iNeAo-15">
          <mxGeometry relative="1" as="geometry" />
        </mxCell>
        <mxCell id="wuLsv0dlwk853q3iNeAo-14" value="Registrar devolução&amp;nbsp;" style="rounded=1;whiteSpace=wrap;html=1;arcSize=40;fillColor=#f8cecc;strokeColor=#b85450;" vertex="1" parent="1">
          <mxGeometry x="410" y="760" width="120" height="40" as="geometry" />
        </mxCell>
        <mxCell id="wuLsv0dlwk853q3iNeAo-19" style="edgeStyle=orthogonalEdgeStyle;rounded=0;orthogonalLoop=1;jettySize=auto;html=1;entryX=0.767;entryY=-0.067;entryDx=0;entryDy=0;entryPerimeter=0;" edge="1" parent="1" source="wuLsv0dlwk853q3iNeAo-15" target="wuLsv0dlwk853q3iNeAo-17">
          <mxGeometry relative="1" as="geometry" />
        </mxCell>
        <mxCell id="wuLsv0dlwk853q3iNeAo-15" value="Registrar histórico" style="rounded=1;whiteSpace=wrap;html=1;arcSize=40;fillColor=#f8cecc;strokeColor=#b85450;" vertex="1" parent="1">
          <mxGeometry x="430" y="860" width="120" height="40" as="geometry" />
        </mxCell>
        <mxCell id="wuLsv0dlwk853q3iNeAo-17" value="" style="ellipse;html=1;shape=endState;fillColor=#000000;strokeColor=#ff0000;" vertex="1" parent="1">
          <mxGeometry x="310" y="960" width="30" height="30" as="geometry" />
        </mxCell>
      </root>
    </mxGraphModel>
  </diagram>
</mxfile>
